# xmcd
#
# Track frame offsets:
#	150
#	19059
#	37650
#	59417
#	81660
#	104542
#	130755
#	143359
#	160961
#	182556
#	205195
#	225663
#	249742
#	267975
#	293612
#	313569
#
# Disc length: 4501 seconds
#
# Revision: 0
# Processed by: cddbd v1.5.2PL0 Copyright (c) Steve Scherf et al.
# Submitted via: EasyCDDAExtractor 10.0.6.1
#
DISCID=d9119310
DTITLE=Diana Krall - Quiet Nights
DYEAR=2009
DGENRE=JAZZ
TTITLE0=Where Or When
TTITLE1=Too Marvelous For Words
TTITLE2=I've Grown Accustomed To His Face
TTITLE3=The Boy From Ipanema
TTITLE4=Walk On By
TTITLE5=You're My Thrill
TTITLE6=Este Seu Olhar
TTITLE7=So Nice
TTITLE8=Quiet Nights
TTITLE9=Guess I'll Hang My Tears Out To Dry
TTITLE10=How Can You Meand A Broken Heart
TTITLE11=Every Time We Say Goodbye
TTITLE12=Day In Day Out
TTITLE13=Willow Weep For Me
TTITLE14=Come Dance With Me
TTITLE15=You Can Depend On Me
EXTD=
EXTT0=
EXTT1=
EXTT2=
EXTT3=
EXTT4=
EXTT5=
EXTT6=
EXTT7=
EXTT8=
EXTT9=
EXTT10=
EXTT11=
EXTT12=
EXTT13=
EXTT14=
EXTT15=
PLAYORDER=
